<svg xmlns="http://www.w3.org/2000/svg" viewBox="0 0 864 209.4736">
  <g id="full-rgb">
    <g>
      <g id="logoMark">
        <path id="logoMark_PathItem_" data-name="logoMark &lt;PathItem&gt;" d="M141.1382,48.0184l20.3171-20.3171A94.5783,94.5783,0,0,0,27.7013,161.4552L7.3843,181.7723A94.5783,94.5783,0,0,0,141.1382,48.0184Z" style="fill: #58b0ae"/>
        <path id="logoMark_PathItem_2" data-name="logoMark &lt;PathItem&gt;" d="M48.0184,48.0184a65.8456,65.8456,0,0,0,0,93.12l93.12-93.12A65.8457,65.8457,0,0,0,48.0184,48.0184Z" style="fill: #347f82"/>
        <path id="logoMark_PathItem_3" data-name="logoMark &lt;PathItem&gt;" d="M48.0184,141.1382,27.7013,161.4553a65.8456,65.8456,0,0,0,93.12-93.12Z" style="fill: #347f82"/>
        <path id="logoMark_PathItem_4" data-name="logoMark &lt;PathItem&gt;" d="M120.8211,68.3355a37.113,37.113,0,0,0-52.4857,52.4857l-20.317,20.317a37.113,37.113,0,0,0,52.4857-52.4857Z" style="fill: #151532"/>
      </g>
      <path id="fullLogo" d="M238.8221,120.83c.72,8.6377,7.1984,15.4763,20.695,15.4763,12.0572,0,16.1964-4.1392,16.1964-10.4378,0-5.3988-2.52-9.3574-12.5972-10.6175l-20.1554-2.5192c-16.9157-2.16-26.0938-11.1575-26.0938-26.2735,0-19.9758,16.916-29.3332,40.85-29.3332,24.2942,0,40.67,9.5376,42.29,29.3332H275.3532c-.9-7.3786-6.4783-12.5972-17.6357-12.5972-11.5173,0-16.196,4.3188-16.196,10.0775,0,4.499,2.3392,8.0977,11.3372,9.1777l18.8953,2.16c21.4151,2.6994,29.5133,11.8767,29.5133,27.893,0,17.6357-11.1574,29.8731-42.11,29.8731-32.0326,0-44.09-15.1165-44.6294-32.2122Z" style="fill: #151532"/>
      <path id="fullLogo-2" data-name="fullLogo" d="M315.1229,126.2287c0-14.3968,6.2986-23.7547,29.5128-27.7137l21.235-3.5992c8.2783-1.4394,11.1574-3.7794,11.1574-8.998,0-6.2986-3.5992-10.4374-15.6565-10.4374-12.2369,0-17.9955,4.8589-18.3554,14.0366H316.9225c.72-19.2552,16.5558-32.392,43.91-32.392s40.67,11.697,40.67,30.7725v38.8707a194.4321,194.4321,0,0,0,1.44,23.3948H379.7275a123.5527,123.5527,0,0,1-1.44-19.2556c-4.1387,12.417-14.9363,21.5947-33.2922,21.5947C326.82,152.5021,315.1229,142.4246,315.1229,126.2287Zm61.9052-18.8959v-3.959c-4.6787,3.2394-9.1777,4.499-14.7567,5.7587l-7.5582,1.8c-9.5375,2.34-13.3164,5.7586-13.3164,12.5972,0,7.1984,5.3983,10.7976,12.5967,10.7976C368.03,134.3269,377.0281,124.0688,377.0281,107.3328Z" style="fill: #151532"/>
      <path id="fullLogo-3" data-name="fullLogo" d="M429.039,80.3393H413.0228V67.5624l16.0162-7.738V51.5461c0-16.9161,8.4581-27.3534,30.7725-27.3534h23.0346V43.4479H451.8934V60.1838h26.0938V80.3393H455.6728V150.163H429.039Z" style="fill: #151532"/>
      <path id="fullLogo-4" data-name="fullLogo" d="M553.0292,122.9893H578.583c-2.5192,14.3964-14.0365,30.0528-46.4289,30.0528-35.0918,0-48.4087-22.6747-48.4087-48.0484,0-26.0942,15.1165-47.689,48.4087-47.689,34.0119,0,46.6086,22.1348,46.6086,47.5089a43.6476,43.6476,0,0,1-.36,7.1984H509.8392c1.62,17.0958,10.0775,22.6743,22.8544,22.6743C544.391,134.6863,550.51,129.6477,553.0292,122.9893Zm-43.01-27.1737h43.37c-.9-13.6767-7.5582-20.5153-20.8751-20.5153C519.737,75.3,512.1788,80.519,510.0193,95.8156Z" style="fill: #151532"/>
      <path id="fullLogo-5" data-name="fullLogo" d="M601.08,117.77V80.3393H584.7041V67.5624L603.24,60.0041,614.217,38.7692h13.4966V60.1838h25.914V80.3393h-25.914v48.5888h23.3948V150.163H634.1923C608.6385,150.163,601.08,139.1853,601.08,117.77Z" style="fill: #151532"/>
      <path id="fullLogo-6" data-name="fullLogo" d="M730.471,122.9893h25.5538c-2.5193,14.3964-14.0365,30.0528-46.4289,30.0528-35.0918,0-48.4087-22.6747-48.4087-48.0484,0-26.0942,15.1165-47.689,48.4087-47.689,34.0118,0,46.6086,22.1348,46.6086,47.5089a43.6476,43.6476,0,0,1-.36,7.1984H687.281c1.6194,17.0958,10.0775,22.6743,22.8544,22.6743C721.8328,134.6863,727.9513,129.6477,730.471,122.9893Zm-43.01-27.1737h43.37c-.9-13.6767-7.5582-20.5153-20.8751-20.5153C697.1788,75.3,689.6205,80.519,687.4611,95.8156Z" style="fill: #151532"/>
      <path id="fullLogo-7" data-name="fullLogo" d="M816.3114,57.3047c31.1324,0,46.429,17.2759,47.1486,39.4107H837.5464c-.9-11.157-7.0183-18.5356-20.6954-18.5356-14.3964,0-23.0346,6.8382-23.0346,26.9936,0,20.3352,8.2784,26.9936,22.6747,26.9936,14.2167,0,20.5153-8.2779,21.5948-19.0755H864c-.54,21.0552-15.4763,39.9506-47.149,39.9506-35.0914,0-49.848-22.6747-49.848-47.8687S781.3993,57.3047,816.3114,57.3047Z" style="fill: #151532"/>
    </g>
  </g>
</svg>
