<svg xmlns="http://www.w3.org/2000/svg" viewBox="0 0 168.8395 209.4736">
  <g id="black-rgb">
    <g id="logoMark">
      <path id="logoMark_PathItem_" data-name="logoMark &lt;PathItem&gt;" d="M141.1382,48.0184l20.3171-20.3171A94.5783,94.5783,0,0,0,27.7013,161.4552L7.3843,181.7723A94.5783,94.5783,0,0,0,141.1382,48.0184Z" style="fill: #151532;opacity: 0.4"/>
      <path id="logoMark_PathItem_2" data-name="logoMark &lt;PathItem&gt;" d="M48.0184,48.0184a65.8456,65.8456,0,0,0,0,93.12l93.12-93.12A65.8457,65.8457,0,0,0,48.0184,48.0184Z" style="fill: #151532;opacity: 0.6"/>
      <path id="logoMark_PathItem_3" data-name="logoMark &lt;PathItem&gt;" d="M48.0184,141.1382,27.7013,161.4553a65.8456,65.8456,0,0,0,93.12-93.12Z" style="fill: #151532;opacity: 0.6"/>
      <path id="logoMark_PathItem_4" data-name="logoMark &lt;PathItem&gt;" d="M120.8211,68.3355a37.113,37.113,0,0,0-52.4857,52.4857l-20.317,20.317a37.113,37.113,0,0,0,52.4857-52.4857Z" style="fill: #151532"/>
    </g>
  </g>
</svg>
